<?xml version="1.0" encoding="UTF-8"?>
<svg xmlns="http://www.w3.org/2000/svg" xmlns:xlink="http://www.w3.org/1999/xlink" width="35px" height="35px" viewBox="0 0 35 35" version="1.1">
<g id="surface1">
<path style=" stroke:none;fill-rule:nonzero;fill:rgb(0%,0%,0%);fill-opacity:1;" d="M 27.34375 35 L 7.65625 35 C 5.847656 35 4.375 33.527344 4.375 31.71875 L 4.375 3.28125 C 4.375 1.472656 5.847656 0 7.65625 0 L 27.34375 0 C 29.152344 0 30.625 1.472656 30.625 3.28125 L 30.625 31.71875 C 30.625 33.527344 29.152344 35 27.34375 35 Z M 28.4375 3.28125 C 28.4375 2.679688 27.949219 2.1875 27.34375 2.1875 L 7.65625 2.1875 C 7.050781 2.1875 6.5625 2.679688 6.5625 3.28125 L 6.5625 31.71875 C 6.5625 32.320312 7.050781 32.8125 7.65625 32.8125 L 27.34375 32.8125 C 27.949219 32.8125 28.4375 32.320312 28.4375 31.71875 Z M 19.6875 5.46875 L 15.3125 5.46875 C 14.707031 5.46875 14.21875 4.980469 14.21875 4.375 C 14.21875 3.769531 14.707031 3.28125 15.3125 3.28125 L 19.6875 3.28125 C 20.292969 3.28125 20.78125 3.769531 20.78125 4.375 C 20.78125 4.980469 20.292969 5.46875 19.6875 5.46875 Z M 17.5 27.34375 C 18.707031 27.34375 19.6875 28.324219 19.6875 29.53125 C 19.6875 30.738281 18.707031 31.71875 17.5 31.71875 C 16.292969 31.71875 15.3125 30.738281 15.3125 29.53125 C 15.3125 28.324219 16.292969 27.34375 17.5 27.34375 Z M 17.5 27.34375 "/>
</g>
</svg>
