<?xml version="1.0" encoding="UTF-8"?>
<svg xmlns="http://www.w3.org/2000/svg" xmlns:xlink="http://www.w3.org/1999/xlink" width="35px" height="35px" viewBox="0 0 35 35" version="1.1">
<g id="surface1">
<path style=" stroke:none;fill-rule:evenodd;fill:rgb(0%,0%,0%);fill-opacity:1;" d="M 2.917969 8.75 C 2.917969 6.332031 4.875 4.375 7.292969 4.375 L 27.707031 4.375 C 30.125 4.375 32.082031 6.332031 32.082031 8.75 L 32.082031 21.875 C 32.082031 24.292969 30.125 26.25 27.707031 26.25 L 18.957031 26.25 L 18.957031 27.707031 L 21.875 27.707031 C 22.679688 27.707031 23.332031 28.359375 23.332031 29.167969 C 23.332031 29.972656 22.679688 30.625 21.875 30.625 L 13.125 30.625 C 12.320312 30.625 11.667969 29.972656 11.667969 29.167969 C 11.667969 28.359375 12.320312 27.707031 13.125 27.707031 L 16.042969 27.707031 L 16.042969 26.25 L 7.292969 26.25 C 4.875 26.25 2.917969 24.292969 2.917969 21.875 Z M 7.292969 7.292969 C 6.484375 7.292969 5.832031 7.945312 5.832031 8.75 L 5.832031 21.875 C 5.832031 22.679688 6.484375 23.332031 7.292969 23.332031 L 27.707031 23.332031 C 28.515625 23.332031 29.167969 22.679688 29.167969 21.875 L 29.167969 8.75 C 29.167969 7.945312 28.515625 7.292969 27.707031 7.292969 Z M 7.292969 7.292969 "/>
</g>
</svg>
