<?xml version="1.0" encoding="UTF-8"?>
<svg xmlns="http://www.w3.org/2000/svg" xmlns:xlink="http://www.w3.org/1999/xlink" width="35px" height="35px" viewBox="0 0 35 35" version="1.1">
<g id="surface1">
<path style=" stroke:none;fill-rule:evenodd;fill:rgb(0%,0%,0%);fill-opacity:1;" d="M 13.550781 1.886719 C 13.824219 1.613281 14.195312 1.457031 14.582031 1.457031 L 26.25 1.457031 C 28.667969 1.457031 30.625 3.417969 30.625 5.832031 L 30.625 13.125 C 30.625 13.929688 29.972656 14.582031 29.167969 14.582031 C 28.359375 14.582031 27.707031 13.929688 27.707031 13.125 L 27.707031 5.832031 C 27.707031 5.027344 27.054688 4.375 26.25 4.375 L 16.042969 4.375 L 16.042969 11.667969 C 16.042969 12.472656 15.390625 13.125 14.582031 13.125 L 7.292969 13.125 L 7.292969 29.167969 C 7.292969 29.972656 7.945312 30.625 8.75 30.625 L 10.207031 30.625 C 11.015625 30.625 11.667969 31.277344 11.667969 32.082031 C 11.667969 32.890625 11.015625 33.542969 10.207031 33.542969 L 8.75 33.542969 C 6.332031 33.542969 4.375 31.582031 4.375 29.167969 L 4.375 11.667969 C 4.375 11.28125 4.527344 10.910156 4.800781 10.636719 Z M 9.355469 10.207031 L 13.125 10.207031 L 13.125 6.4375 Z M 23.332031 21.511719 C 23.332031 19.296875 25.128906 17.5 27.34375 17.5 L 30.625 17.5 C 31.429688 17.5 32.082031 18.152344 32.082031 18.957031 C 32.082031 19.765625 31.429688 20.417969 30.625 20.417969 L 27.34375 20.417969 C 26.738281 20.417969 26.25 20.90625 26.25 21.511719 C 26.25 22.113281 26.738281 22.605469 27.34375 22.605469 L 28.074219 22.605469 C 30.289062 22.605469 32.082031 24.398438 32.082031 26.613281 C 32.082031 28.828125 30.289062 30.625 28.074219 30.625 L 24.792969 30.625 C 23.984375 30.625 23.332031 29.972656 23.332031 29.167969 C 23.332031 28.359375 23.984375 27.707031 24.792969 27.707031 L 28.074219 27.707031 C 28.675781 27.707031 29.167969 27.21875 29.167969 26.613281 C 29.167969 26.011719 28.675781 25.519531 28.074219 25.519531 L 27.34375 25.519531 C 25.128906 25.519531 23.332031 23.726562 23.332031 21.511719 Z M 21.875 18.957031 C 21.875 18.152344 21.222656 17.5 20.417969 17.5 C 19.609375 17.5 18.957031 18.152344 18.957031 18.957031 L 18.957031 26.25 C 18.957031 27.054688 18.304688 27.707031 17.5 27.707031 C 16.695312 27.707031 16.042969 27.054688 16.042969 26.25 L 16.042969 25.765625 C 16.042969 24.957031 15.390625 24.304688 14.582031 24.304688 C 13.777344 24.304688 13.125 24.957031 13.125 25.765625 L 13.125 26.25 C 13.125 28.667969 15.082031 30.625 17.5 30.625 C 19.917969 30.625 21.875 28.667969 21.875 26.25 Z M 21.875 18.957031 "/>
</g>
</svg>
