<?xml version="1.0" encoding="UTF-8"?>
<svg xmlns="http://www.w3.org/2000/svg" xmlns:xlink="http://www.w3.org/1999/xlink" width="35px" height="35px" viewBox="0 0 35 35" version="1.1">
<g id="surface1">
<path style=" stroke:none;fill-rule:nonzero;fill:rgb(0%,0%,0%);fill-opacity:1;" d="M 31.019531 5.546875 C 31.019531 6.242188 30.457031 6.804688 29.761719 6.804688 C 29.070312 6.804688 28.507812 6.242188 28.507812 5.546875 C 28.507812 4.855469 29.070312 4.292969 29.761719 4.292969 C 30.457031 4.292969 31.019531 4.855469 31.019531 5.546875 Z M 31.019531 5.546875 "/>
<path style=" stroke:none;fill-rule:nonzero;fill:rgb(0%,0%,0%);fill-opacity:1;" d="M 29.761719 6.832031 C 29.054688 6.832031 28.480469 6.257812 28.480469 5.546875 C 28.480469 4.839844 29.054688 4.265625 29.761719 4.265625 C 30.472656 4.265625 31.046875 4.839844 31.046875 5.546875 C 31.046875 6.257812 30.472656 6.832031 29.761719 6.832031 Z M 29.761719 4.324219 C 29.089844 4.324219 28.539062 4.875 28.539062 5.546875 C 28.539062 6.222656 29.089844 6.773438 29.761719 6.773438 C 30.4375 6.773438 30.988281 6.222656 30.988281 5.546875 C 30.988281 4.875 30.4375 4.324219 29.761719 4.324219 Z M 29.761719 4.324219 "/>
<path style=" stroke:none;fill-rule:nonzero;fill:rgb(0%,0%,0%);fill-opacity:1;" d="M 27.277344 5.546875 C 27.277344 6.242188 26.71875 6.804688 26.023438 6.804688 C 25.332031 6.804688 24.769531 6.242188 24.769531 5.546875 C 24.769531 4.855469 25.332031 4.292969 26.023438 4.292969 C 26.71875 4.292969 27.277344 4.855469 27.277344 5.546875 Z M 27.277344 5.546875 "/>
<path style=" stroke:none;fill-rule:nonzero;fill:rgb(0%,0%,0%);fill-opacity:1;" d="M 26.023438 6.832031 C 25.316406 6.832031 24.742188 6.257812 24.742188 5.546875 C 24.742188 4.839844 25.316406 4.265625 26.023438 4.265625 C 26.734375 4.265625 27.308594 4.839844 27.308594 5.546875 C 27.308594 6.257812 26.734375 6.832031 26.023438 6.832031 Z M 26.023438 4.324219 C 25.347656 4.324219 24.800781 4.875 24.800781 5.546875 C 24.800781 6.222656 25.347656 6.773438 26.023438 6.773438 C 26.699219 6.773438 27.25 6.222656 27.25 5.546875 C 27.25 4.875 26.699219 4.324219 26.023438 4.324219 Z M 26.023438 4.324219 "/>
<path style=" stroke:none;fill-rule:nonzero;fill:rgb(0%,0%,0%);fill-opacity:1;" d="M 23.539062 5.546875 C 23.539062 6.242188 22.980469 6.804688 22.285156 6.804688 C 21.59375 6.804688 21.03125 6.242188 21.03125 5.546875 C 21.03125 4.855469 21.59375 4.292969 22.285156 4.292969 C 22.980469 4.292969 23.539062 4.855469 23.539062 5.546875 Z M 23.539062 5.546875 "/>
<path style=" stroke:none;fill-rule:nonzero;fill:rgb(0%,0%,0%);fill-opacity:1;" d="M 22.285156 6.832031 C 21.578125 6.832031 21.003906 6.257812 21.003906 5.546875 C 21.003906 4.839844 21.578125 4.265625 22.285156 4.265625 C 22.992188 4.265625 23.570312 4.839844 23.570312 5.546875 C 23.570312 6.257812 22.992188 6.832031 22.285156 6.832031 Z M 22.285156 4.324219 C 21.609375 4.324219 21.0625 4.875 21.0625 5.546875 C 21.0625 6.222656 21.609375 6.773438 22.285156 6.773438 C 22.960938 6.773438 23.511719 6.222656 23.511719 5.546875 C 23.511719 4.875 22.960938 4.324219 22.285156 4.324219 Z M 22.285156 4.324219 "/>
<path style=" stroke:none;fill-rule:nonzero;fill:rgb(0%,0%,0%);fill-opacity:1;" d="M 34.96875 31.03125 L 34.96875 3.96875 C 34.96875 2.074219 33.429688 0.535156 31.53125 0.535156 L 3.464844 0.535156 C 1.570312 0.535156 0.03125 2.074219 0.03125 3.96875 L 0.03125 31.03125 C 0.03125 32.925781 1.570312 34.464844 3.464844 34.464844 L 31.53125 34.464844 C 33.429688 34.464844 34.96875 32.925781 34.96875 31.03125 Z M 2.5625 3.96875 C 2.5625 3.472656 2.96875 3.066406 3.464844 3.066406 L 31.53125 3.066406 C 32.03125 3.066406 32.4375 3.472656 32.4375 3.96875 L 32.4375 7.84375 L 2.5625 7.84375 Z M 2.5625 31.03125 L 2.5625 10.375 L 32.4375 10.375 L 32.4375 31.03125 C 32.4375 31.527344 32.03125 31.933594 31.53125 31.933594 L 3.464844 31.933594 C 2.96875 31.933594 2.5625 31.527344 2.5625 31.03125 Z M 2.5625 31.03125 "/>
<path style=" stroke:none;fill-rule:nonzero;fill:rgb(0%,0%,0%);fill-opacity:1;" d="M 31.53125 34.496094 L 3.464844 34.496094 C 1.554688 34.496094 0 32.941406 0 31.03125 L 0 3.96875 C 0 2.058594 1.554688 0.503906 3.464844 0.503906 L 31.53125 0.503906 C 33.445312 0.503906 35 2.058594 35 3.96875 L 35 31.03125 C 35 32.941406 33.445312 34.496094 31.53125 34.496094 Z M 3.464844 0.5625 C 1.585938 0.5625 0.0585938 2.089844 0.0585938 3.96875 L 0.0585938 31.03125 C 0.0585938 32.910156 1.585938 34.4375 3.464844 34.4375 L 31.53125 34.4375 C 33.414062 34.4375 34.941406 32.910156 34.941406 31.03125 L 34.941406 3.96875 C 34.941406 2.089844 33.414062 0.5625 31.53125 0.5625 Z M 31.53125 31.964844 L 3.464844 31.964844 C 2.953125 31.964844 2.53125 31.542969 2.53125 31.03125 L 2.53125 10.34375 L 32.46875 10.34375 L 32.46875 31.03125 C 32.46875 31.542969 32.046875 31.964844 31.53125 31.964844 Z M 2.59375 10.402344 L 2.59375 31.03125 C 2.59375 31.511719 2.984375 31.90625 3.464844 31.90625 L 31.53125 31.90625 C 32.015625 31.90625 32.40625 31.511719 32.40625 31.03125 L 32.40625 10.402344 Z M 32.46875 7.871094 L 2.53125 7.871094 L 2.53125 3.96875 C 2.53125 3.457031 2.953125 3.035156 3.464844 3.035156 L 31.53125 3.035156 C 32.046875 3.035156 32.46875 3.457031 32.46875 3.96875 Z M 2.59375 7.8125 L 32.40625 7.8125 L 32.40625 3.96875 C 32.40625 3.488281 32.015625 3.09375 31.53125 3.09375 L 3.464844 3.09375 C 2.984375 3.09375 2.59375 3.488281 2.59375 3.96875 Z M 2.59375 7.8125 "/>
</g>
</svg>
