<?xml version="1.0" encoding="UTF-8"?>
<svg xmlns="http://www.w3.org/2000/svg" xmlns:xlink="http://www.w3.org/1999/xlink" width="35px" height="35px" viewBox="0 0 35 35" version="1.1">
<g id="surface1">
<path style=" stroke:none;fill-rule:nonzero;fill:rgb(0%,0%,0%);fill-opacity:1;" d="M 35 13.738281 C 35 12.769531 34.484375 11.875 33.644531 11.398438 L 18.898438 2.648438 C 18.035156 2.140625 16.964844 2.140625 16.101562 2.648438 L 1.335938 11.398438 C 0.503906 11.890625 -0.00390625 12.78125 -0.00390625 13.75 C -0.00390625 14.714844 0.503906 15.609375 1.335938 16.101562 L 5.535156 18.550781 L 5.535156 24.695312 C 5.539062 25.675781 6.054688 26.578125 6.890625 27.082031 L 16.1875 32.441406 C 17.03125 32.90625 18.054688 32.90625 18.898438 32.441406 L 28.195312 27.082031 C 29.035156 26.578125 29.546875 25.675781 29.554688 24.695312 L 29.554688 18.484375 L 32.265625 16.886719 L 32.265625 22.835938 L 35 22.835938 Z M 26.839844 24.675781 L 17.5 30.054688 L 8.269531 24.695312 L 8.269531 20.167969 L 16.101562 24.828125 C 16.96875 25.324219 18.03125 25.324219 18.898438 24.828125 L 26.820312 20.101562 Z M 17.5 22.464844 L 2.734375 13.714844 L 17.5 4.945312 L 32.265625 13.695312 Z M 17.5 22.464844 "/>
</g>
</svg>
