<?xml version="1.0" encoding="UTF-8"?>
<svg xmlns="http://www.w3.org/2000/svg" xmlns:xlink="http://www.w3.org/1999/xlink" width="35px" height="35px" viewBox="0 0 35 35" version="1.1">
<g id="surface1">
<path style=" stroke:none;fill-rule:evenodd;fill:rgb(0%,0%,0%);fill-opacity:1;" d="M 22.714844 9.832031 L 31.621094 9.832031 L 31.621094 7.28125 L 22.714844 7.28125 Z M 27.105469 14.949219 C 25.121094 14.949219 23.609375 16.179688 23.464844 18.457031 L 30.589844 18.457031 C 30.109375 15.757812 28.910156 14.949219 27.105469 14.949219 Z M 27.382812 25.496094 C 29.21875 25.496094 30.5625 24.339844 30.839844 23.363281 L 34.695312 23.363281 C 33.59375 26.890625 31.316406 28.875 27.226562 28.875 C 22.011719 28.875 19.082031 25.164062 19.082031 20.242188 C 19.082031 8.644531 35.8125 8.230469 34.972656 21.324219 L 23.464844 21.324219 C 23.578125 23.980469 24.675781 25.496094 27.382812 25.496094 Z M 10.027344 24.988281 C 12.132812 24.988281 13.605469 24.175781 13.605469 21.992188 C 13.605469 19.726562 12.304688 18.742188 10.117188 18.742188 L 4.84375 18.742188 L 4.84375 24.988281 Z M 9.75 15.332031 C 11.5 15.332031 12.710938 14.519531 12.710938 12.625 C 12.710938 10.628906 11.304688 10.011719 9.378906 10.011719 L 4.84375 10.011719 L 4.84375 15.332031 Z M 10.367188 6.125 C 14.515625 6.125 17.398438 7.496094 17.398438 11.765625 C 17.398438 13.878906 16.550781 15.453125 14.40625 16.511719 C 17.152344 17.328125 18.449219 19.46875 18.449219 22.28125 C 18.449219 26.742188 14.910156 28.875 10.675781 28.875 L 0 28.875 L 0 6.125 Z M 10.367188 6.125 "/>
</g>
</svg>
