<?xml version="1.0" encoding="UTF-8"?>
<svg xmlns="http://www.w3.org/2000/svg" xmlns:xlink="http://www.w3.org/1999/xlink" width="35px" height="35px" viewBox="0 0 35 35" version="1.1">
<g id="surface1">
<path style=" stroke:none;fill-rule:nonzero;fill:rgb(0%,0%,0%);fill-opacity:1;" d="M 25.867188 0 L 13.339844 0 L 3.261719 10.078125 L 3.261719 29.128906 C 3.261719 32.367188 5.894531 35 9.132812 35 L 25.867188 35 C 29.105469 35 31.738281 32.367188 31.738281 29.128906 L 31.738281 5.871094 C 31.738281 2.632812 29.105469 0 25.867188 0 Z M 29.566406 29.128906 C 29.566406 31.171875 27.910156 32.824219 25.867188 32.824219 L 9.132812 32.824219 C 7.089844 32.824219 5.433594 31.171875 5.433594 29.128906 L 5.433594 10.976562 L 11.15625 10.976562 C 12.859375 10.976562 14.238281 9.597656 14.238281 7.898438 L 14.238281 2.175781 L 25.867188 2.175781 C 27.910156 2.175781 29.566406 3.828125 29.566406 5.871094 Z M 29.566406 29.128906 "/>
<path style=" stroke:none;fill-rule:nonzero;fill:rgb(0%,0%,0%);fill-opacity:1;" d="M 11.152344 17.308594 C 10.804688 17.308594 10.546875 17.558594 10.546875 17.957031 L 10.546875 19.558594 C 10.546875 19.59375 10.53125 19.609375 10.496094 19.609375 L 8.652344 19.609375 C 8.621094 19.609375 8.601562 19.59375 8.601562 19.558594 L 8.601562 17.957031 C 8.601562 17.558594 8.34375 17.308594 7.996094 17.308594 C 7.640625 17.308594 7.382812 17.558594 7.382812 17.957031 L 7.382812 22.410156 C 7.382812 22.808594 7.632812 23.058594 7.988281 23.058594 C 8.335938 23.058594 8.601562 22.808594 8.601562 22.410156 L 8.601562 20.746094 C 8.601562 20.714844 8.621094 20.699219 8.652344 20.699219 L 10.496094 20.699219 C 10.53125 20.699219 10.546875 20.714844 10.546875 20.746094 L 10.546875 22.410156 C 10.546875 22.808594 10.804688 23.058594 11.152344 23.058594 C 11.511719 23.058594 11.769531 22.808594 11.769531 22.410156 L 11.769531 17.957031 C 11.769531 17.558594 11.511719 17.308594 11.152344 17.308594 Z M 11.152344 17.308594 "/>
<path style=" stroke:none;fill-rule:nonzero;fill:rgb(0%,0%,0%);fill-opacity:1;" d="M 16.082031 17.359375 L 12.847656 17.359375 C 12.476562 17.359375 12.234375 17.582031 12.234375 17.90625 C 12.234375 18.222656 12.476562 18.445312 12.847656 18.445312 L 13.804688 18.445312 C 13.839844 18.445312 13.855469 18.464844 13.855469 18.496094 L 13.855469 22.410156 C 13.855469 22.800781 14.113281 23.058594 14.460938 23.058594 C 14.820312 23.058594 15.078125 22.800781 15.078125 22.410156 L 15.078125 18.496094 C 15.078125 18.464844 15.09375 18.445312 15.125 18.445312 L 16.082031 18.445312 C 16.453125 18.445312 16.695312 18.222656 16.695312 17.90625 C 16.695312 17.582031 16.453125 17.359375 16.082031 17.359375 Z M 16.082031 17.359375 "/>
<path style=" stroke:none;fill-rule:nonzero;fill:rgb(0%,0%,0%);fill-opacity:1;" d="M 21.753906 17.308594 C 21.390625 17.308594 21.191406 17.507812 21.007812 17.9375 L 19.828125 20.664062 L 19.792969 20.664062 L 18.589844 17.9375 C 18.398438 17.507812 18.199219 17.308594 17.835938 17.308594 C 17.425781 17.308594 17.160156 17.589844 17.160156 18.039062 L 17.160156 22.46875 C 17.160156 22.839844 17.394531 23.058594 17.726562 23.058594 C 18.042969 23.058594 18.273438 22.839844 18.273438 22.46875 L 18.273438 19.742188 L 18.316406 19.742188 L 19.199219 21.769531 C 19.371094 22.167969 19.511719 22.285156 19.792969 22.285156 C 20.078125 22.285156 20.21875 22.167969 20.394531 21.769531 L 21.265625 19.742188 L 21.308594 19.742188 L 21.308594 22.46875 C 21.308594 22.839844 21.53125 23.058594 21.863281 23.058594 C 22.195312 23.058594 22.421875 22.839844 22.421875 22.46875 L 22.421875 18.039062 C 22.421875 17.589844 22.164062 17.308594 21.753906 17.308594 Z M 21.753906 17.308594 "/>
<path style=" stroke:none;fill-rule:nonzero;fill:rgb(0%,0%,0%);fill-opacity:1;" d="M 26.617188 21.917969 L 24.605469 21.917969 C 24.574219 21.917969 24.554688 21.902344 24.554688 21.867188 L 24.554688 17.957031 C 24.554688 17.566406 24.296875 17.308594 23.949219 17.308594 C 23.59375 17.308594 23.335938 17.566406 23.335938 17.957031 L 23.335938 22.390625 C 23.335938 22.757812 23.574219 23.007812 23.949219 23.007812 L 26.617188 23.007812 C 26.992188 23.007812 27.230469 22.78125 27.230469 22.457031 C 27.230469 22.144531 26.992188 21.917969 26.617188 21.917969 Z M 26.617188 21.917969 "/>
</g>
</svg>
